<svg xmlns:xlink="http://www.w3.org/1999/xlink" version="1.1" class="highcharts-root" style="font-family:&quot;lucida grande&quot;, &quot;lucida sans unicode&quot;, arial, helvetica, sans-serif;font-size:12px;" xmlns="http://www.w3.org/2000/svg" width="600" height="400"><desc>Created with Highcharts 5.0.6</desc><defs><clipPath id="highcharts-cusf0p2-51"><rect x="0" y="0" width="535" height="299" fill="none"></rect></clipPath></defs><rect fill="#ffffff" class="highcharts-background" x="0" y="0" width="600" height="400" rx="0" ry="0"></rect><rect fill="none" class="highcharts-plot-background" x="55" y="46" width="535" height="299"></rect><g class="highcharts-plot-bands-0"><path fill="#e6c3c3" class="highcharts-plot-band " d="M 55 46.5 L 590 46.5 590 46.5 55 46.5 z"></path><path fill="#e6dcc3" class="highcharts-plot-band " d="M 55 96.5 L 590 96.5 590 46.5 55 46.5 z"></path><path fill="#c3e6c3" class="highcharts-plot-band " d="M 55 345.5 L 590 345.5 590 96.5 55 96.5 z"></path></g><g class="highcharts-grid highcharts-xaxis-grid "><path fill="none" class="highcharts-grid-line" d="M 54.5 46 L 54.5 345" opacity="1"></path><path fill="none" class="highcharts-grid-line" d="M 124.5 46 L 124.5 345" opacity="1"></path><path fill="none" class="highcharts-grid-line" d="M 193.5 46 L 193.5 345" opacity="1"></path><path fill="none" class="highcharts-grid-line" d="M 263.5 46 L 263.5 345" opacity="1"></path><path fill="none" class="highcharts-grid-line" d="M 333.5 46 L 333.5 345" opacity="1"></path><path fill="none" class="highcharts-grid-line" d="M 402.5 46 L 402.5 345" opacity="1"></path><path fill="none" class="highcharts-grid-line" d="M 472.5 46 L 472.5 345" opacity="1"></path><path fill="none" class="highcharts-grid-line" d="M 542.5 46 L 542.5 345" opacity="1"></path></g><g class="highcharts-grid highcharts-yaxis-grid "><path fill="none" stroke="#e6e6e6" stroke-width="1" class="highcharts-grid-line" d="M 55 345.5 L 590 345.5" opacity="1"></path><path fill="none" stroke="#e6e6e6" stroke-width="1" class="highcharts-grid-line" d="M 55 295.5 L 590 295.5" opacity="1"></path><path fill="none" stroke="#e6e6e6" stroke-width="1" class="highcharts-grid-line" d="M 55 245.5 L 590 245.5" opacity="1"></path><path fill="none" stroke="#e6e6e6" stroke-width="1" class="highcharts-grid-line" d="M 55 196.5 L 590 196.5" opacity="1"></path><path fill="none" stroke="#e6e6e6" stroke-width="1" class="highcharts-grid-line" d="M 55 146.5 L 590 146.5" opacity="1"></path><path fill="none" stroke="#e6e6e6" stroke-width="1" class="highcharts-grid-line" d="M 55 96.5 L 590 96.5" opacity="1"></path><path fill="none" stroke="#e6e6e6" stroke-width="1" class="highcharts-grid-line" d="M 55 45.5 L 590 45.5" opacity="1"></path></g><rect fill="none" class="highcharts-plot-border" x="55" y="46" width="535" height="299"></rect><g class="highcharts-axis highcharts-xaxis "><path fill="none" class="highcharts-tick" stroke="#ccd6eb" stroke-width="1" d="M 54.5 345 L 54.5 355" opacity="1"></path><path fill="none" class="highcharts-tick" stroke="#ccd6eb" stroke-width="1" d="M 124.5 345 L 124.5 355" opacity="1"></path><path fill="none" class="highcharts-tick" stroke="#ccd6eb" stroke-width="1" d="M 193.5 345 L 193.5 355" opacity="1"></path><path fill="none" class="highcharts-tick" stroke="#ccd6eb" stroke-width="1" d="M 263.5 345 L 263.5 355" opacity="1"></path><path fill="none" class="highcharts-tick" stroke="#ccd6eb" stroke-width="1" d="M 333.5 345 L 333.5 355" opacity="1"></path><path fill="none" class="highcharts-tick" stroke="#ccd6eb" stroke-width="1" d="M 402.5 345 L 402.5 355" opacity="1"></path><path fill="none" class="highcharts-tick" stroke="#ccd6eb" stroke-width="1" d="M 472.5 345 L 472.5 355" opacity="1"></path><path fill="none" class="highcharts-tick" stroke="#ccd6eb" stroke-width="1" d="M 542.5 345 L 542.5 355" opacity="1"></path><text x="322.5" text-anchor="middle" transform="translate(0,0)" class="highcharts-axis-title" style="color:#666666;fill:#666666;" y="383"><tspan>Position in Read (bp)</tspan></text><path fill="none" class="highcharts-axis-line" stroke="#ccd6eb" stroke-width="1" d="M 55 345.5 L 590 345.5"></path></g><g class="highcharts-axis highcharts-yaxis "><text x="23.883333206176758" text-anchor="middle" transform="translate(0,0) rotate(270 23.883333206176758 195.5)" class="highcharts-axis-title" style="color:#666666;fill:#666666;" y="195.5"><tspan>Percentage N-Count</tspan></text><path fill="none" class="highcharts-axis-line" d="M 55 46 L 55 345"></path></g><g class="highcharts-series-group"><g class="highcharts-series highcharts-series-0 highcharts-line-series highcharts-color-undefined " transform="translate(55,46) scale(1 1)" width="299" height="535" clip-path="url(#highcharts-cusf0p2-51)"><path fill="none" d="M 6.9697759249609 291.85707911565527 L 13.939551849922 298.9996314615097 L 20.909327774883 298.84982056520334 L 27.879103699844 298.9449034957004 L 34.848879624805 299 L 41.818655549766 297.9608135919805 L 48.788431474726 298.30198809937446 L 55.758207399687 298.54374934901034 L 62.727983324648 298.47335849736334 L 69.697759249609 298.4158664928767 L 76.66753517457 298.4263698398502 L 83.637311099531 298.3919114910073 L 90.607087024492 298.01277751911266 L 97.576862949453 297.91833953097364 L 104.54663887441 298.02088536589923 L 111.51641479937 297.6825670318051 L 118.48619072434 297.2921005013338 L 125.4559666493 296.1047616202143 L 132.42574257426 296.7751331340674 L 139.39551849922 297.14201320115967 L 146.36529442418 297.4946124017528 L 153.33507034914 297.625627835054 L 160.3048462741 298.23850734442055 L 167.27462219906 298.4591697654868 L 174.24439812402 298.4928910373491 L 181.21417404898 298.62141883584076 L 188.18394997394 298.6252884899889 L 195.15372589891 298.1346716247789 L 202.12350182387 298.13596150949496 L 209.09327774883 298.7399039604718 L 216.06305367379 298.82715544804995 L 223.03282959875 298.86096885453486 L 230.00260552371 298.89395304941655 L 236.97238144867 298.85009696907105 L 243.94215737363 298.68508386003987 L 250.91193329859 298.7758364632759" class="highcharts-graph" stroke="#5cb85c" stroke-width="2" stroke-linejoin="round" stroke-linecap="round"></path></g><g class="highcharts-markers highcharts-series-0 highcharts-line-series highcharts-color-undefined " transform="translate(55,46) scale(1 1)" width="299" height="535" clip-path="none"></g><g class="highcharts-series highcharts-series-1 highcharts-line-series highcharts-color-undefined " transform="translate(55,46) scale(1 1)" width="299" height="535" clip-path="url(#highcharts-cusf0p2-51)"><path fill="none" d="M 6.9697759249609 299 L 13.939551849922 299 L 20.909327774883 298.40604345860555 L 27.879103699844 298.9350717252671 L 34.848879624805 298.99314137942963 L 41.818655549766 298.74257310792524 L 48.788431474726 298.99817103451454 L 55.758207399687 299 L 62.727983324648 299 L 69.697759249609 298.9958848276578 L 76.66753517457 299 L 83.637311099531 298.99862827588595 L 90.607087024492 299 L 97.576862949453 299 L 104.54663887441 299 L 111.51641479937 299 L 118.48619072434 299 L 125.4559666493 299 L 132.42574257426 299 L 139.39551849922 298.99954275862865 L 146.36529442418 299 L 153.33507034914 299 L 160.3048462741 298.9721082763471 L 167.27462219906 299 L 174.24439812402 298.9899406898301 L 181.21417404898 299 L 188.18394997394 298.9812531037743 L 195.15372589891 299 L 202.12350182387 299 L 209.09327774883 299 L 216.06305367379 298.99954275862865 L 223.03282959875 298.9977137931432 L 230.00260552371 299 L 236.97238144867 298.9163248290414 L 243.94215737363 298.99222689668693 L 250.91193329859 299" class="highcharts-graph" stroke="#5cb85c" stroke-width="2" stroke-linejoin="round" stroke-linecap="round"></path></g><g class="highcharts-markers highcharts-series-1 highcharts-line-series highcharts-color-undefined " transform="translate(55,46) scale(1 1)" width="299" height="535" clip-path="none"></g><g class="highcharts-series highcharts-series-2 highcharts-line-series highcharts-color-undefined " transform="translate(55,46) scale(1 1)" width="299" height="535" clip-path="url(#highcharts-cusf0p2-51)"><path fill="none" d="M 6.9697759249609 297.87853999538726 L 13.939551849922 297.96958556899267 L 20.909327774883 299 L 27.879103699844 299 L 34.848879624805 299 L 41.818655549766 298.15659809856055 L 48.788431474726 299 L 55.758207399687 298.93202340619325 L 62.727983324648 298.9683186010765 L 69.697759249609 298.98523585292884 L 83.637311099531 298.92648685104155 L 97.576862949453 298.9633972187194 L 111.51641479937 298.9866199917168 L 125.4559666493 298.95493859279327 L 139.39551849922 299 L 153.33507034914 299 L 167.27462219906 298.99138758087514 L 181.21417404898 298.97985309097584 L 195.15372589891 298.95555376558787 L 209.09327774883 299 L 223.03282959875 299 L 236.97238144867 298.8941902793234 L 250.91193329859 293.3105744088529 L 264.85148514851 294.1101452486749 L 278.79103699844 299 L 292.73058884836 298.90833925359993 L 306.67014069828 298.4629541502869 L 320.6096925482 299 L 334.54924439812 284.5881931469751 L 348.48879624805 280.73321282941833 L 362.42834809797 278.16932641459397 L 376.36789994789 290.4040367474189 L 390.30745179781 299 L 404.24700364773 299 L 418.18655549766 299 L 432.12610734758 298.6587328921783 L 446.0656591975 298.70533223137164 L 460.00521104742 298.58521974321985 L 473.94476289734 298.0541718282545 L 487.88431474726 298.5713783553407 L 501.82386659719 298.18889467027867 L 515.76341844711 298.4637231162802 L 529.70297029703 298.94647996686706" class="highcharts-graph" stroke="#5cb85c" stroke-width="2" stroke-linejoin="round" stroke-linecap="round"></path></g><g class="highcharts-markers highcharts-series-2 highcharts-line-series highcharts-color-undefined " transform="translate(55,46) scale(1 1)" width="299" height="535" clip-path="none"></g></g><text x="330" text-anchor="middle" class="highcharts-title" style="color:#333333;font-size:18px;fill:#333333;width:536px;" y="24"><tspan>FastQC: Per Base N Content</tspan></text><g class="highcharts-axis-labels highcharts-xaxis-labels "><text x="55" style="color:#666666;cursor:default;font-size:11px;fill:#666666;" text-anchor="middle" transform="translate(0,0)" y="364" opacity="1">0</text><text x="124.69775924960916" style="color:#666666;cursor:default;font-size:11px;fill:#666666;" text-anchor="middle" transform="translate(0,0)" y="364" opacity="1">10</text><text x="194.39551849921833" style="color:#666666;cursor:default;font-size:11px;fill:#666666;" text-anchor="middle" transform="translate(0,0)" y="364" opacity="1">20</text><text x="264.0932777488275" style="color:#666666;cursor:default;font-size:11px;fill:#666666;" text-anchor="middle" transform="translate(0,0)" y="364" opacity="1">30</text><text x="333.79103699843665" style="color:#666666;cursor:default;font-size:11px;fill:#666666;" text-anchor="middle" transform="translate(0,0)" y="364" opacity="1">40</text><text x="403.48879624804584" style="color:#666666;cursor:default;font-size:11px;fill:#666666;" text-anchor="middle" transform="translate(0,0)" y="364" opacity="1">50</text><text x="473.18655549765504" style="color:#666666;cursor:default;font-size:11px;fill:#666666;" text-anchor="middle" transform="translate(0,0)" y="364" opacity="1">60</text><text x="542.8843147472642" style="color:#666666;cursor:default;font-size:11px;fill:#666666;" text-anchor="middle" transform="translate(0,0)" y="364" opacity="1">70</text></g><g class="highcharts-axis-labels highcharts-yaxis-labels "><text x="40" style="color:#666666;cursor:default;font-size:11px;fill:#666666;width:188px;text-overflow:clip;" text-anchor="end" transform="translate(0,0)" y="350" opacity="1"><tspan>0</tspan></text><text x="40" style="color:#666666;cursor:default;font-size:11px;fill:#666666;width:188px;text-overflow:clip;" text-anchor="end" transform="translate(0,0)" y="300" opacity="1"><tspan>1</tspan></text><text x="40" style="color:#666666;cursor:default;font-size:11px;fill:#666666;width:188px;text-overflow:clip;" text-anchor="end" transform="translate(0,0)" y="250" opacity="1"><tspan>2</tspan></text><text x="40" style="color:#666666;cursor:default;font-size:11px;fill:#666666;width:188px;text-overflow:clip;" text-anchor="end" transform="translate(0,0)" y="200" opacity="1"><tspan>3</tspan></text><text x="40" style="color:#666666;cursor:default;font-size:11px;fill:#666666;width:188px;text-overflow:clip;" text-anchor="end" transform="translate(0,0)" y="150" opacity="1"><tspan>4</tspan></text><text x="40" style="color:#666666;cursor:default;font-size:11px;fill:#666666;width:188px;text-overflow:clip;" text-anchor="end" transform="translate(0,0)" y="100" opacity="1"><tspan>5</tspan></text><text x="40" style="color:#666666;cursor:default;font-size:11px;fill:#666666;width:188px;text-overflow:clip;" text-anchor="end" transform="translate(0,0)" y="51" opacity="1"><tspan>6</tspan></text></g><text x="590" class="highcharts-credits" text-anchor="end" style="cursor:pointer;color:#999999;font-size:9px;fill:#999999;" y="395"><tspan>Created with MultiQC</tspan></text></svg>