<svg xmlns:xlink="http://www.w3.org/1999/xlink" version="1.1" class="highcharts-root" style="font-family:&quot;lucida grande&quot;, &quot;lucida sans unicode&quot;, arial, helvetica, sans-serif;font-size:12px;" xmlns="http://www.w3.org/2000/svg" width="600" height="400"><desc>Created with Highcharts 5.0.6</desc><defs><clipPath id="highcharts-xe3rgl5-49"><rect x="0" y="0" width="492" height="299" fill="none"></rect></clipPath></defs><rect fill="#ffffff" class="highcharts-background" x="0" y="0" width="600" height="400" rx="0" ry="0"></rect><rect fill="none" class="highcharts-plot-background" x="98" y="46" width="492" height="299"></rect><g class="highcharts-plot-bands-0"><path fill="#c3e6c3" class="highcharts-plot-band " d="M 447.5 46 L 447.5 345 589.5 345 589.5 46 z"></path><path fill="#e6dcc3" class="highcharts-plot-band " d="M 347.5 46 L 347.5 345 447.5 345 447.5 46 z"></path><path fill="#e6c3c3" class="highcharts-plot-band " d="M 97.5 46 L 97.5 345 347.5 345 347.5 46 z"></path></g><g class="highcharts-grid highcharts-xaxis-grid "><path fill="none" class="highcharts-grid-line" d="M 97.5 46 L 97.5 345" opacity="1"></path><path fill="none" class="highcharts-grid-line" d="M 222.5 46 L 222.5 345" opacity="1"></path><path fill="none" class="highcharts-grid-line" d="M 347.5 46 L 347.5 345" opacity="1"></path><path fill="none" class="highcharts-grid-line" d="M 472.5 46 L 472.5 345" opacity="1"></path></g><g class="highcharts-grid highcharts-yaxis-grid "><path fill="none" stroke="#e6e6e6" stroke-width="1" class="highcharts-grid-line" d="M 98 345.5 L 590 345.5" opacity="1"></path><path fill="none" stroke="#e6e6e6" stroke-width="1" class="highcharts-grid-line" d="M 98 270.5 L 590 270.5" opacity="1"></path><path fill="none" stroke="#e6e6e6" stroke-width="1" class="highcharts-grid-line" d="M 98 196.5 L 590 196.5" opacity="1"></path><path fill="none" stroke="#e6e6e6" stroke-width="1" class="highcharts-grid-line" d="M 98 121.5 L 590 121.5" opacity="1"></path><path fill="none" stroke="#e6e6e6" stroke-width="1" class="highcharts-grid-line" d="M 98 45.5 L 590 45.5" opacity="1"></path></g><rect fill="none" class="highcharts-plot-border" x="98" y="46" width="492" height="299"></rect><g class="highcharts-axis highcharts-xaxis "><path fill="none" class="highcharts-tick" stroke="#ccd6eb" stroke-width="1" d="M 97.5 345 L 97.5 355" opacity="1"></path><path fill="none" class="highcharts-tick" stroke="#ccd6eb" stroke-width="1" d="M 222.5 345 L 222.5 355" opacity="1"></path><path fill="none" class="highcharts-tick" stroke="#ccd6eb" stroke-width="1" d="M 347.5 345 L 347.5 355" opacity="1"></path><path fill="none" class="highcharts-tick" stroke="#ccd6eb" stroke-width="1" d="M 472.5 345 L 472.5 355" opacity="1"></path><text x="344" text-anchor="middle" transform="translate(0,0)" class="highcharts-axis-title" style="color:#666666;fill:#666666;" y="383"><tspan>Mean Sequence Quality (Phred Score)</tspan></text><path fill="none" class="highcharts-axis-line" stroke="#ccd6eb" stroke-width="1" d="M 98 345.5 L 590 345.5"></path></g><g class="highcharts-axis highcharts-yaxis "><text x="24.066665649414062" text-anchor="middle" transform="translate(0,0) rotate(270 24.066665649414062 195.5)" class="highcharts-axis-title" style="color:#666666;fill:#666666;" y="195.5">Count</text><path fill="none" class="highcharts-axis-line" d="M 98 46 L 98 345"></path></g><g class="highcharts-series-group"><g class="highcharts-series highcharts-series-0 highcharts-line-series highcharts-color-undefined " transform="translate(98,46) scale(1 1)" width="299" height="492" clip-path="url(#highcharts-xe3rgl5-49)"><path fill="none" d="M 24.980959634425 296.53855725 L 37.471439451637 298.97501855 L 49.96191926885 298.2096832 L 62.452399086062 297.97052805 L 74.942878903275 298.30190975 L 87.433358720487 298.38305835 L 99.9238385377 298.42545655 L 112.41431835491 298.47488125 L 124.90479817212 298.49201395 L 137.39527798934 298.4903545 L 149.88575780655 298.50029625 L 162.37623762376 298.49431625 L 174.86671744097 298.4650292 L 187.35719725819 298.39636385 L 199.8476770754 298.38996525 L 212.33815689261 298.3289244 L 224.82863670982 298.2675995 L 237.31911652704 298.17187465 L 249.80959634425 297.98592655 L 262.30007616146 297.72104245 L 274.79055597867 297.3929348 L 287.28103579589 297.0290518 L 299.7715156131 296.62861605 L 312.26199543031 296.18056455 L 324.75247524752 295.5835662 L 337.24295506474 294.88487795 L 349.73343488195 293.92753975 L 362.22391469916 292.6310309 L 374.71439451637 290.81793975 L 387.20487433359 288.260817 L 399.6953541508 284.6164256 L 412.18583396801 279.1944194 L 424.67631378522 270.7251547 L 437.16679360244 256.395789 L 449.65727341965 229.5544693 L 462.14775323686 170.77592805 L 474.63823305407 23.08499764999999 L 487.12871287129 130.72463885000002" class="highcharts-graph" stroke="#5cb85c" stroke-width="2" stroke-linejoin="round" stroke-linecap="round"></path></g><g class="highcharts-markers highcharts-series-0 highcharts-line-series highcharts-color-undefined " transform="translate(98,46) scale(1 1)" width="299" height="492" clip-path="none"></g><g class="highcharts-series highcharts-series-1 highcharts-line-series highcharts-color-undefined " transform="translate(98,46) scale(1 1)" width="299" height="492" clip-path="url(#highcharts-xe3rgl5-49)"><path fill="none" d="M 74.942878903275 298.9999103 L 87.433358720487 298.99863955 L 99.9238385377 298.99268945 L 112.41431835491 298.979668 L 124.90479817212 298.95304205 L 137.39527798934 298.9165491 L 149.88575780655 298.827776 L 162.37623762376 298.65595565 L 174.86671744097 298.41956625 L 187.35719725819 298.1653116 L 199.8476770754 297.95181065 L 212.33815689261 297.7900666 L 224.82863670982 297.6512409 L 237.31911652704 297.5149268 L 249.80959634425 297.3765496 L 262.30007616146 297.21008135 L 274.79055597867 297.0065371 L 287.28103579589 296.7667391 L 299.7715156131 296.46604975 L 312.26199543031 296.04416075 L 324.75247524752 295.51959515 L 337.24295506474 294.7886149 L 349.73343488195 293.884708 L 362.22391469916 292.7205515 L 374.71439451637 291.22111135 L 387.20487433359 289.2996327 L 399.6953541508 286.86432255 L 412.18583396801 283.5751581 L 424.67631378522 278.9761793 L 437.16679360244 272.45312055 L 449.65727341965 262.0183943 L 462.14775323686 243.67096195 L 474.63823305407 234.21244080000002 L 487.12871287129 262.36865785" class="highcharts-graph" stroke="#5cb85c" stroke-width="2" stroke-linejoin="round" stroke-linecap="round"></path></g><g class="highcharts-markers highcharts-series-1 highcharts-line-series highcharts-color-undefined " transform="translate(98,46) scale(1 1)" width="299" height="492" clip-path="none"></g><g class="highcharts-series highcharts-series-2 highcharts-line-series highcharts-color-undefined " transform="translate(98,46) scale(1 1)" width="299" height="492" clip-path="url(#highcharts-xe3rgl5-49)"><path fill="none" d="M 74.942878903275 298.9999701 L 87.433358720487 298.99974585 L 99.9238385377 298.9988937 L 112.41431835491 298.9957841 L 124.90479817212 298.98503505 L 137.39527798934 298.9349077 L 149.88575780655 298.8329487 L 162.37623762376 298.70116445 L 174.86671744097 298.57839505 L 187.35719725819 298.47407395 L 199.8476770754 298.3868407 L 212.33815689261 298.31437805 L 224.82863670982 298.2475366 L 237.31911652704 298.1927598 L 249.80959634425 298.1160364 L 262.30007616146 298.0405389 L 274.79055597867 297.93644205 L 287.28103579589 297.8169467 L 299.7715156131 297.66817925 L 312.26199543031 297.49852665 L 324.75247524752 297.31825955 L 337.24295506474 297.10863065 L 349.73343488195 296.84240105 L 362.22391469916 296.49514245 L 374.71439451637 296.0250098 L 387.20487433359 295.40752995 L 399.6953541508 294.4640803 L 412.18583396801 293.3146944 L 424.67631378522 291.5969095 L 437.16679360244 288.98043525 L 449.65727341965 284.5565359 L 462.14775323686 274.510704 L 474.63823305407 222.70639755000002 L 487.12871287129 225.7430864" class="highcharts-graph" stroke="#5cb85c" stroke-width="2" stroke-linejoin="round" stroke-linecap="round"></path></g><g class="highcharts-markers highcharts-series-2 highcharts-line-series highcharts-color-undefined " transform="translate(98,46) scale(1 1)" width="299" height="492" clip-path="none"></g></g><text x="330" text-anchor="middle" class="highcharts-title" style="color:#333333;font-size:18px;fill:#333333;width:536px;" y="24"><tspan>FastQC: Per Sequence Quality Scores</tspan></text><g class="highcharts-axis-labels highcharts-xaxis-labels "><text x="98" style="color:#666666;cursor:default;font-size:11px;fill:#666666;width:154px;text-overflow:clip;" text-anchor="middle" transform="translate(0,0)" y="364" opacity="1"><tspan>0</tspan></text><text x="222.9047981721249" style="color:#666666;cursor:default;font-size:11px;fill:#666666;width:154px;text-overflow:clip;" text-anchor="middle" transform="translate(0,0)" y="364" opacity="1"><tspan>10</tspan></text><text x="347.8095963442498" style="color:#666666;cursor:default;font-size:11px;fill:#666666;width:154px;text-overflow:clip;" text-anchor="middle" transform="translate(0,0)" y="364" opacity="1"><tspan>20</tspan></text><text x="472.7143945163747" style="color:#666666;cursor:default;font-size:11px;fill:#666666;width:154px;text-overflow:clip;" text-anchor="middle" transform="translate(0,0)" y="364" opacity="1"><tspan>30</tspan></text></g><g class="highcharts-axis-labels highcharts-yaxis-labels "><text x="83" style="color:#666666;cursor:default;font-size:11px;fill:#666666;width:188px;text-overflow:clip;" text-anchor="end" transform="translate(0,0)" y="350" opacity="1"><tspan>0</tspan></text><text x="83" style="color:#666666;cursor:default;font-size:11px;fill:#666666;width:188px;text-overflow:clip;" text-anchor="end" transform="translate(0,0)" y="275" opacity="1"><tspan>5000000</tspan></text><text x="83" style="color:#666666;cursor:default;font-size:11px;fill:#666666;width:188px;text-overflow:clip;" text-anchor="end" transform="translate(0,0)" y="200" opacity="1"><tspan>10000000</tspan></text><text x="83" style="color:#666666;cursor:default;font-size:11px;fill:#666666;width:188px;text-overflow:clip;" text-anchor="end" transform="translate(0,0)" y="125" opacity="1"><tspan>15000000</tspan></text><text x="83" style="color:#666666;cursor:default;font-size:11px;fill:#666666;width:188px;text-overflow:clip;" text-anchor="end" transform="translate(0,0)" y="51" opacity="1"><tspan>20000000</tspan></text></g><text x="590" class="highcharts-credits" text-anchor="end" style="cursor:pointer;color:#999999;font-size:9px;fill:#999999;" y="395"><tspan>Created with MultiQC</tspan></text></svg>