<svg xmlns:xlink="http://www.w3.org/1999/xlink" version="1.1" class="highcharts-root" style="font-family:&quot;lucida grande&quot;, &quot;lucida sans unicode&quot;, arial, helvetica, sans-serif;font-size:12px;" xmlns="http://www.w3.org/2000/svg" width="600" height="400"><desc>Created with Highcharts 5.0.6</desc><defs><clipPath id="highcharts-cusf0p2-44"><rect x="0" y="0" width="529" height="299" fill="none"></rect></clipPath></defs><rect fill="#ffffff" class="highcharts-background" x="0" y="0" width="600" height="400" rx="0" ry="0"></rect><rect fill="none" class="highcharts-plot-background" x="61" y="46" width="529" height="299"></rect><g class="highcharts-plot-bands-0"><path fill="#c3e6c3" class="highcharts-plot-band " d="M 61 178.5 L 590 178.5 590 46.5 61 46.5 z"></path><path fill="#e6dcc3" class="highcharts-plot-band " d="M 61 225.5 L 590 225.5 590 178.5 61 178.5 z"></path><path fill="#e6c3c3" class="highcharts-plot-band " d="M 61 345.5 L 590 345.5 590 225.5 61 225.5 z"></path></g><g class="highcharts-grid highcharts-xaxis-grid "><path fill="none" class="highcharts-grid-line" d="M 127.5 46 L 127.5 345" opacity="1"></path><path fill="none" class="highcharts-grid-line" d="M 197.5 46 L 197.5 345" opacity="1"></path><path fill="none" class="highcharts-grid-line" d="M 266.5 46 L 266.5 345" opacity="1"></path><path fill="none" class="highcharts-grid-line" d="M 335.5 46 L 335.5 345" opacity="1"></path><path fill="none" class="highcharts-grid-line" d="M 404.5 46 L 404.5 345" opacity="1"></path><path fill="none" class="highcharts-grid-line" d="M 473.5 46 L 473.5 345" opacity="1"></path><path fill="none" class="highcharts-grid-line" d="M 542.5 46 L 542.5 345" opacity="1"></path></g><g class="highcharts-grid highcharts-yaxis-grid "><path fill="none" stroke="#e6e6e6" stroke-width="1" class="highcharts-grid-line" d="M 61 345.5 L 590 345.5" opacity="1"></path><path fill="none" stroke="#e6e6e6" stroke-width="1" class="highcharts-grid-line" d="M 61 285.5 L 590 285.5" opacity="1"></path><path fill="none" stroke="#e6e6e6" stroke-width="1" class="highcharts-grid-line" d="M 61 225.5 L 590 225.5" opacity="1"></path><path fill="none" stroke="#e6e6e6" stroke-width="1" class="highcharts-grid-line" d="M 61 166.5 L 590 166.5" opacity="1"></path><path fill="none" stroke="#e6e6e6" stroke-width="1" class="highcharts-grid-line" d="M 61 106.5 L 590 106.5" opacity="1"></path><path fill="none" stroke="#e6e6e6" stroke-width="1" class="highcharts-grid-line" d="M 61 45.5 L 590 45.5" opacity="1"></path></g><rect fill="none" class="highcharts-plot-border" x="61" y="46" width="529" height="299"></rect><g class="highcharts-axis highcharts-xaxis "><path fill="none" class="highcharts-tick" stroke="#ccd6eb" stroke-width="1" d="M 127.5 345 L 127.5 355" opacity="1"></path><path fill="none" class="highcharts-tick" stroke="#ccd6eb" stroke-width="1" d="M 197.5 345 L 197.5 355" opacity="1"></path><path fill="none" class="highcharts-tick" stroke="#ccd6eb" stroke-width="1" d="M 266.5 345 L 266.5 355" opacity="1"></path><path fill="none" class="highcharts-tick" stroke="#ccd6eb" stroke-width="1" d="M 335.5 345 L 335.5 355" opacity="1"></path><path fill="none" class="highcharts-tick" stroke="#ccd6eb" stroke-width="1" d="M 404.5 345 L 404.5 355" opacity="1"></path><path fill="none" class="highcharts-tick" stroke="#ccd6eb" stroke-width="1" d="M 473.5 345 L 473.5 355" opacity="1"></path><path fill="none" class="highcharts-tick" stroke="#ccd6eb" stroke-width="1" d="M 542.5 345 L 542.5 355" opacity="1"></path><text x="325.5" text-anchor="middle" transform="translate(0,0)" class="highcharts-axis-title" style="color:#666666;fill:#666666;" y="383"><tspan>Position (bp)</tspan></text><path fill="none" class="highcharts-axis-line" stroke="#ccd6eb" stroke-width="1" d="M 61 345.5 L 590 345.5"></path></g><g class="highcharts-axis highcharts-yaxis "><text x="23.766666412353516" text-anchor="middle" transform="translate(0,0) rotate(270 23.766666412353516 195.5)" class="highcharts-axis-title" style="color:#666666;fill:#666666;" y="195.5"><tspan>Phred Score</tspan></text><path fill="none" class="highcharts-axis-line" d="M 61 46 L 61 345"></path></g><g class="highcharts-series-group"><g class="highcharts-series highcharts-series-0 highcharts-line-series highcharts-color-undefined " transform="translate(61,46) scale(1 1)" width="299" height="529" clip-path="url(#highcharts-cusf0p2-44)"><path fill="none" d="M 5.1862745098039 107.68082109217022 L 12.101307189542 105.98733196442853 L 19.016339869281 105.67079469735725 L 25.93137254902 84.77750516648746 L 32.846405228758 84.74809225699215 L 39.761437908497 85.92053820288785 L 46.676470588235 86.32995457713801 L 53.591503267974 86.6986561088647 L 60.506535947712 77.12489503410592 L 67.421568627451 77.27207102762205 L 74.33660130719 77.53391615082523 L 81.251633986928 77.71294625279646 L 88.166666666667 78.46331420550777 L 95.081699346405 71.07494948751668 L 101.99673202614 71.37910905770664 L 108.91176470588 71.78226798007623 L 115.82679738562 72.06427378026808 L 122.74183006536 72.49253326955025 L 129.6568627451 72.3725089807684 L 136.57189542484 72.72078415610875 L 143.48692810458 73.09785961941202 L 150.40196078431 73.46437302756027 L 157.31699346405 73.82016074946381 L 164.23202614379 74.06370782606211 L 171.14705882353 74.44762306891454 L 178.06209150327 74.88171965507533 L 184.97712418301 75.38311549719572 L 191.89215686275 75.96130738992454 L 198.80718954248 76.41893423734467 L 205.72222222222 77.24252389640856 L 212.63725490196 76.21216999240912 L 219.5522875817 76.4207638098259 L 226.46732026144 76.70877818785593 L 233.38235294118 77.22295406032751 L 240.29738562092 77.88791775093554 L 247.21241830065 78.67576662091795" class="highcharts-graph" stroke="#5cb85c" stroke-width="2" stroke-linejoin="round" stroke-linecap="round"></path></g><g class="highcharts-markers highcharts-series-0 highcharts-line-series highcharts-color-undefined " transform="translate(61,46) scale(1 1)" width="299" height="529" clip-path="none"></g><g class="highcharts-series highcharts-series-1 highcharts-line-series highcharts-color-undefined " transform="translate(61,46) scale(1 1)" width="299" height="529" clip-path="url(#highcharts-cusf0p2-44)"><path fill="none" d="M 5.1862745098039 131.2391087371669 L 12.101307189542 117.05103317067469 L 19.016339869281 110.81422062810651 L 25.93137254902 86.86110665930306 L 32.846405228758 85.65493483117655 L 39.761437908497 85.87673439007779 L 46.676470588235 85.58498348563444 L 53.591503267974 85.58061591605522 L 60.506535947712 75.26480888304678 L 67.421568627451 75.59674965796356 L 74.33660130719 75.40511211757226 L 81.251633986928 76.0682375730741 L 88.166666666667 76.28432911359187 L 95.081699346405 68.88867800386703 L 101.99673202614 68.79758619496849 L 108.91176470588 69.0038496065537 L 115.82679738562 68.87995274112225 L 122.74183006536 69.18921891643333 L 129.6568627451 68.57108326842493 L 136.57189542484 68.40839185028884 L 143.48692810458 68.46850628786405 L 150.40196078431 69.6044030435576 L 157.31699346405 69.10266970911098 L 164.23202614379 68.68109334761516 L 171.14705882353 75.04954586389394 L 178.06209150327 76.69403786674235 L 184.97712418301 77.6109591691407 L 191.89215686275 78.00974515751565 L 198.80718954248 78.40744912990942 L 205.72222222222 78.66439335799254 L 212.63725490196 78.99751381564744 L 219.5522875817 79.16322247814486 L 226.46732026144 79.34664284240321 L 233.38235294118 79.55726175239542 L 240.29738562092 79.91197424498512 L 247.21241830065 78.5327879517296" class="highcharts-graph" stroke="#5cb85c" stroke-width="2" stroke-linejoin="round" stroke-linecap="round"></path></g><g class="highcharts-markers highcharts-series-1 highcharts-line-series highcharts-color-undefined " transform="translate(61,46) scale(1 1)" width="299" height="529" clip-path="none"></g><g class="highcharts-series highcharts-series-2 highcharts-line-series highcharts-color-undefined " transform="translate(61,46) scale(1 1)" width="299" height="529" clip-path="url(#highcharts-cusf0p2-44)"><path fill="none" d="M 5.1862745098039 106.30750988957135 L 12.101307189542 106.18634902394297 L 19.016339869281 106.40305163809813 L 25.93137254902 83.43227408725537 L 32.846405228758 83.32666872698118 L 39.761437908497 84.32194645651211 L 46.676470588235 84.72597103215091 L 53.591503267974 84.80639207945478 L 60.506535947712 84.85667027499457 L 67.421568627451 84.94865164945517 L 81.251633986928 85.03265724711616 L 95.081699346405 72.70854920405074 L 108.91176470588 72.7840722455638 L 122.74183006536 72.75807701181566 L 136.57189542484 72.7836099432086 L 150.40196078431 72.9706369908545 L 164.23202614379 73.19490180113957 L 178.06209150327 73.38095976708198 L 191.89215686275 73.59405014810437 L 205.72222222222 73.85868087468927 L 219.5522875817 74.11272792244625 L 233.38235294118 74.282608627891 L 247.21241830065 74.80511917481255 L 261.04248366013 75.22991358344734 L 274.87254901961 75.16325475128397 L 288.70261437908 75.32425316129888 L 302.53267973856 75.60518073797277 L 316.36274509804 75.90316662562086 L 330.19281045752 76.97008959343663 L 344.02287581699 77.6928433142547 L 357.85294117647 78.38182035761085 L 371.68300653595 78.64507709575895 L 385.51307189542 78.68793520008441 L 399.3431372549 78.97922868441694 L 413.17320261438 79.64947279341735 L 427.00326797386 80.56290325903731 L 440.83333333333 81.56099189761875 L 454.66339869281 82.51075083897021 L 468.49346405229 83.69416458814385 L 482.32352941176 85.09962151257204 L 496.15359477124 86.52466750733424 L 509.98366013072 88.04677337404581 L 523.8137254902 99.8239683188068" class="highcharts-graph" stroke="#5cb85c" stroke-width="2" stroke-linejoin="round" stroke-linecap="round"></path></g><g class="highcharts-markers highcharts-series-2 highcharts-line-series highcharts-color-undefined " transform="translate(61,46) scale(1 1)" width="299" height="529" clip-path="none"></g></g><text x="330" text-anchor="middle" class="highcharts-title" style="color:#333333;font-size:18px;fill:#333333;width:536px;" y="24"><tspan>FastQC: Mean Quality Scores</tspan></text><g class="highcharts-axis-labels highcharts-xaxis-labels "><text x="128.421568627451" style="color:#666666;cursor:default;font-size:11px;fill:#666666;" text-anchor="middle" transform="translate(0,0)" y="364" opacity="1">10</text><text x="197.5718954248366" style="color:#666666;cursor:default;font-size:11px;fill:#666666;" text-anchor="middle" transform="translate(0,0)" y="364" opacity="1">20</text><text x="266.72222222222223" style="color:#666666;cursor:default;font-size:11px;fill:#666666;" text-anchor="middle" transform="translate(0,0)" y="364" opacity="1">30</text><text x="335.87254901960785" style="color:#666666;cursor:default;font-size:11px;fill:#666666;" text-anchor="middle" transform="translate(0,0)" y="364" opacity="1">40</text><text x="405.02287581699346" style="color:#666666;cursor:default;font-size:11px;fill:#666666;" text-anchor="middle" transform="translate(0,0)" y="364" opacity="1">50</text><text x="474.1732026143791" style="color:#666666;cursor:default;font-size:11px;fill:#666666;" text-anchor="middle" transform="translate(0,0)" y="364" opacity="1">60</text><text x="543.3235294117648" style="color:#666666;cursor:default;font-size:11px;fill:#666666;" text-anchor="middle" transform="translate(0,0)" y="364" opacity="1">70</text></g><g class="highcharts-axis-labels highcharts-yaxis-labels "><text x="46" style="color:#666666;cursor:default;font-size:11px;fill:#666666;width:188px;text-overflow:clip;" text-anchor="end" transform="translate(0,0)" y="350" opacity="1"><tspan>0</tspan></text><text x="46" style="color:#666666;cursor:default;font-size:11px;fill:#666666;width:188px;text-overflow:clip;" text-anchor="end" transform="translate(0,0)" y="290" opacity="1"><tspan>10</tspan></text><text x="46" style="color:#666666;cursor:default;font-size:11px;fill:#666666;width:188px;text-overflow:clip;" text-anchor="end" transform="translate(0,0)" y="230" opacity="1"><tspan>20</tspan></text><text x="46" style="color:#666666;cursor:default;font-size:11px;fill:#666666;width:188px;text-overflow:clip;" text-anchor="end" transform="translate(0,0)" y="170" opacity="1"><tspan>30</tspan></text><text x="46" style="color:#666666;cursor:default;font-size:11px;fill:#666666;width:188px;text-overflow:clip;" text-anchor="end" transform="translate(0,0)" y="110" opacity="1"><tspan>40</tspan></text><text x="46" style="color:#666666;cursor:default;font-size:11px;fill:#666666;width:188px;text-overflow:clip;" text-anchor="end" transform="translate(0,0)" y="51" opacity="1"><tspan>50</tspan></text></g><text x="590" class="highcharts-credits" text-anchor="end" style="cursor:pointer;color:#999999;font-size:9px;fill:#999999;" y="395"><tspan>Created with MultiQC</tspan></text></svg>