<svg xmlns:xlink="http://www.w3.org/1999/xlink" version="1.1" class="highcharts-root" style="font-family:&quot;lucida grande&quot;, &quot;lucida sans unicode&quot;, arial, helvetica, sans-serif;font-size:12px;" xmlns="http://www.w3.org/2000/svg" width="600" height="400"><desc>Created with Highcharts 5.0.6</desc><defs><clipPath id="highcharts-xe3rgl5-36"><rect x="0" y="0" width="262" height="482" fill="none"></rect></clipPath></defs><rect fill="#ffffff" class="highcharts-background" x="0" y="0" width="600" height="400" rx="0" ry="0"></rect><rect fill="none" class="highcharts-plot-background" x="108" y="46" width="482" height="262"></rect><g class="highcharts-grid highcharts-xaxis-grid "><path fill="none" class="highcharts-grid-line" d="M 108 133.5 L 590 133.5" opacity="1"></path><path fill="none" class="highcharts-grid-line" d="M 108 221.5 L 590 221.5" opacity="1"></path><path fill="none" class="highcharts-grid-line" d="M 108 308.5 L 590 308.5" opacity="1"></path><path fill="none" class="highcharts-grid-line" d="M 108 46.5 L 590 46.5" opacity="1"></path></g><g class="highcharts-grid highcharts-yaxis-grid "><path fill="none" stroke="#e6e6e6" stroke-width="1" class="highcharts-grid-line" d="M 107.5 46 L 107.5 308" opacity="1"></path><path fill="none" stroke="#e6e6e6" stroke-width="1" class="highcharts-grid-line" d="M 187.5 46 L 187.5 308" opacity="1"></path><path fill="none" stroke="#e6e6e6" stroke-width="1" class="highcharts-grid-line" d="M 268.5 46 L 268.5 308" opacity="1"></path><path fill="none" stroke="#e6e6e6" stroke-width="1" class="highcharts-grid-line" d="M 348.5 46 L 348.5 308" opacity="1"></path><path fill="none" stroke="#e6e6e6" stroke-width="1" class="highcharts-grid-line" d="M 428.5 46 L 428.5 308" opacity="1"></path><path fill="none" stroke="#e6e6e6" stroke-width="1" class="highcharts-grid-line" d="M 509.5 46 L 509.5 308" opacity="1"></path><path fill="none" stroke="#e6e6e6" stroke-width="1" class="highcharts-grid-line" d="M 590.5 46 L 590.5 308" opacity="1"></path></g><rect fill="none" class="highcharts-plot-border" x="108" y="46" width="482" height="262"></rect><g class="highcharts-axis highcharts-xaxis "><path fill="none" class="highcharts-tick" stroke="#ccd6eb" stroke-width="1" d="M 108 133.5 L 98 133.5" opacity="1"></path><path fill="none" class="highcharts-tick" stroke="#ccd6eb" stroke-width="1" d="M 108 221.5 L 98 221.5" opacity="1"></path><path fill="none" class="highcharts-tick" stroke="#ccd6eb" stroke-width="1" d="M 108 308.5 L 98 308.5" opacity="1"></path><path fill="none" class="highcharts-tick" stroke="#ccd6eb" stroke-width="1" d="M 108 45.5 L 98 45.5" opacity="1"></path><path fill="none" class="highcharts-axis-line" stroke="#ccd6eb" stroke-width="1" d="M 107.5 46 L 107.5 308"></path></g><g class="highcharts-axis highcharts-yaxis "><text x="349" text-anchor="middle" transform="translate(0,0)" class="highcharts-axis-title" style="color:#666666;fill:#666666;" y="346"><tspan>Number of reads</tspan></text><path fill="none" class="highcharts-axis-line" d="M 108 308 L 590 308"></path></g><g class="highcharts-series-group"><g class="highcharts-series highcharts-series-0 highcharts-bar-series highcharts-color-0 " transform="translate(590,308) rotate(90) scale(-1,1) scale(1 1)" width="482" height="262" clip-path="url(#highcharts-xe3rgl5-36)"><rect x="185" y="71" width="68" height="412" fill="#7cb5ec" class="highcharts-point highcharts-color-0"></rect><rect x="97" y="316" width="68" height="167" fill="#7cb5ec" class="highcharts-point highcharts-color-0"></rect><rect x="10" y="365" width="68" height="118" fill="#7cb5ec" class="highcharts-point highcharts-color-0"></rect></g><g class="highcharts-markers highcharts-series-0 highcharts-bar-series highcharts-color-0 " transform="translate(590,308) rotate(90) scale(-1,1) scale(1 1)" width="482" height="262" clip-path="none"></g><g class="highcharts-series highcharts-series-1 highcharts-bar-series highcharts-color-1 " transform="translate(590,308) rotate(90) scale(-1,1) scale(1 1)" width="482" height="262" clip-path="url(#highcharts-xe3rgl5-36)"><rect x="185" y="48" width="68" height="23" fill="#434348" class="highcharts-point highcharts-color-1"></rect><rect x="97" y="309" width="68" height="7" fill="#434348" class="highcharts-point highcharts-color-1"></rect><rect x="10" y="353" width="68" height="12" fill="#434348" class="highcharts-point highcharts-color-1"></rect></g><g class="highcharts-markers highcharts-series-1 highcharts-bar-series highcharts-color-1 " transform="translate(590,308) rotate(90) scale(-1,1) scale(1 1)" width="482" height="262" clip-path="none"></g></g><text x="300" text-anchor="middle" class="highcharts-title" style="color:#333333;font-size:18px;fill:#333333;width:536px;" y="24"><tspan>FastQC: Sequence Counts</tspan></text><g class="highcharts-legend" transform="translate(174,360)"><rect fill="none" class="highcharts-legend-box" rx="0" ry="0" x="0" y="0" width="251" height="25" visibility="visible"></rect><g><g><g class="highcharts-legend-item highcharts-bar-series highcharts-color-0 highcharts-series-0" transform="translate(8,3)"><text x="21" style="color:#333333;font-size:12px;font-weight:bold;cursor:pointer;fill:#333333;" text-anchor="start" y="15"><tspan>Unique Reads</tspan></text><rect x="2" y="4" width="12" height="12" fill="#7cb5ec" rx="6" ry="6" class="highcharts-point"></rect></g><g class="highcharts-legend-item highcharts-bar-series highcharts-color-1 highcharts-series-1" transform="translate(129,3)"><text x="21" y="15" style="color:#333333;font-size:12px;font-weight:bold;cursor:pointer;fill:#333333;" text-anchor="start"><tspan>Duplicate Reads</tspan></text><rect x="2" y="4" width="12" height="12" fill="#434348" rx="6" ry="6" class="highcharts-point"></rect></g></g></g></g><g class="highcharts-axis-labels highcharts-xaxis-labels "><text x="93" style="color:#666666;cursor:default;font-size:11px;fill:#666666;width:188px;text-overflow:clip;" text-anchor="end" transform="translate(0,0)" y="94" opacity="1"><tspan>ENCFF442IIJ</tspan></text><text x="93" style="color:#666666;cursor:default;font-size:11px;fill:#666666;width:188px;text-overflow:clip;" text-anchor="end" transform="translate(0,0)" y="181" opacity="1"><tspan>ENCFF630PTQ</tspan></text><text x="93" style="color:#666666;cursor:default;font-size:11px;fill:#666666;width:188px;text-overflow:clip;" text-anchor="end" transform="translate(0,0)" y="269" opacity="1"><tspan>ENCFF914WYW</tspan></text></g><g class="highcharts-axis-labels highcharts-yaxis-labels "><text x="108" style="color:#666666;cursor:default;font-size:11px;fill:#666666;width:70px;text-overflow:clip;" text-anchor="middle" transform="translate(0,0)" y="327" opacity="1"><tspan>0</tspan></text><text x="188.33333333333331" style="color:#666666;cursor:default;font-size:11px;fill:#666666;width:70px;text-overflow:clip;" text-anchor="middle" transform="translate(0,0)" y="327" opacity="1"><tspan>10M</tspan></text><text x="268.66666666666663" style="color:#666666;cursor:default;font-size:11px;fill:#666666;width:70px;text-overflow:clip;" text-anchor="middle" transform="translate(0,0)" y="327" opacity="1"><tspan>20M</tspan></text><text x="349" style="color:#666666;cursor:default;font-size:11px;fill:#666666;width:70px;text-overflow:clip;" text-anchor="middle" transform="translate(0,0)" y="327" opacity="1"><tspan>30M</tspan></text><text x="429.3333333333333" style="color:#666666;cursor:default;font-size:11px;fill:#666666;width:70px;text-overflow:clip;" text-anchor="middle" transform="translate(0,0)" y="327" opacity="1"><tspan>40M</tspan></text><text x="509.6666666666667" style="color:#666666;cursor:default;font-size:11px;fill:#666666;width:70px;text-overflow:clip;" text-anchor="middle" transform="translate(0,0)" y="327" opacity="1"><tspan>50M</tspan></text><text x="579.3000001907349" style="color:#666666;cursor:default;font-size:11px;fill:#666666;width:70px;text-overflow:clip;" text-anchor="middle" transform="translate(0,0)" y="327" opacity="1"><tspan>60M</tspan></text></g><text x="590" class="highcharts-credits" text-anchor="end" style="cursor:pointer;color:#999999;font-size:9px;fill:#999999;" y="395"><tspan>Created with MultiQC</tspan></text></svg>