<svg xmlns:xlink="http://www.w3.org/1999/xlink" version="1.1" class="highcharts-root" style="font-family:&quot;lucida grande&quot;, &quot;lucida sans unicode&quot;, arial, helvetica, sans-serif;font-size:12px;" xmlns="http://www.w3.org/2000/svg" width="600" height="400"><desc>Created with Highcharts 5.0.6</desc><defs><clipPath id="highcharts-xe3rgl5-64"><rect x="0" y="0" width="482" height="207" fill="none"></rect></clipPath></defs><rect fill="#ffffff" class="highcharts-background" x="0" y="0" width="600" height="400" rx="0" ry="0"></rect><rect fill="none" class="highcharts-plot-background" x="10" y="60" width="482" height="207"></rect><text x="0" style="color:#666666;cursor:default;font-size:11px;fill:#666666;">0</text><text x="0" style="color:#666666;cursor:default;font-size:11px;fill:#666666;">0.25</text><text x="0" style="color:#666666;cursor:default;font-size:11px;fill:#666666;">0.5</text><text x="0" style="color:#666666;cursor:default;font-size:11px;fill:#666666;">0.75</text><text x="0" style="color:#666666;cursor:default;font-size:11px;fill:#666666;">1</text><g class="highcharts-grid highcharts-xaxis-grid "><path fill="none" class="highcharts-grid-line" d="M 53.5 60 L 53.5 267" opacity="1"></path><path fill="none" class="highcharts-grid-line" d="M 97.5 60 L 97.5 267" opacity="1"></path><path fill="none" class="highcharts-grid-line" d="M 140.5 60 L 140.5 267" opacity="1"></path><path fill="none" class="highcharts-grid-line" d="M 184.5 60 L 184.5 267" opacity="1"></path><path fill="none" class="highcharts-grid-line" d="M 228.5 60 L 228.5 267" opacity="1"></path><path fill="none" class="highcharts-grid-line" d="M 272.5 60 L 272.5 267" opacity="1"></path><path fill="none" class="highcharts-grid-line" d="M 316.5 60 L 316.5 267" opacity="1"></path><path fill="none" class="highcharts-grid-line" d="M 360.5 60 L 360.5 267" opacity="1"></path><path fill="none" class="highcharts-grid-line" d="M 403.5 60 L 403.5 267" opacity="1"></path><path fill="none" class="highcharts-grid-line" d="M 447.5 60 L 447.5 267" opacity="1"></path><path fill="none" class="highcharts-grid-line" d="M 491.5 60 L 491.5 267" opacity="1"></path><path fill="none" class="highcharts-grid-line" d="M 9.5 60 L 9.5 267" opacity="1"></path></g><g class="highcharts-grid highcharts-yaxis-grid "><path fill="none" stroke="#e6e6e6" stroke-width="1" class="highcharts-grid-line" d="M 10 129.5 L 492 129.5" opacity="1"></path><path fill="none" stroke="#e6e6e6" stroke-width="1" class="highcharts-grid-line" d="M 10 198.5 L 492 198.5" opacity="1"></path><path fill="none" stroke="#e6e6e6" stroke-width="1" class="highcharts-grid-line" d="M 10 267.5 L 492 267.5" opacity="1"></path><path fill="none" stroke="#e6e6e6" stroke-width="1" class="highcharts-grid-line" d="M 10 59.5 L 492 59.5" opacity="1"></path></g><rect fill="none" class="highcharts-plot-border" x="10" y="60" width="482" height="207"></rect><path fill="none" stroke="#e6e6e6" stroke-width="1" class="highcharts-grid-line" d="M 0 0" opacity="1"></path><path fill="none" stroke="#e6e6e6" stroke-width="1" class="highcharts-grid-line" d="M 0 0" opacity="1"></path><path fill="none" stroke="#e6e6e6" stroke-width="1" class="highcharts-grid-line" d="M 0 0" opacity="1"></path><path fill="none" stroke="#e6e6e6" stroke-width="1" class="highcharts-grid-line" d="M 0 0" opacity="1"></path><path fill="none" stroke="#e6e6e6" stroke-width="1" class="highcharts-grid-line" d="M 0 0" opacity="1"></path><g class="highcharts-axis highcharts-xaxis "><path fill="none" class="highcharts-tick" stroke="#ccd6eb" stroke-width="1" d="M 53.5 267 L 53.5 277" opacity="1"></path><path fill="none" class="highcharts-tick" stroke="#ccd6eb" stroke-width="1" d="M 97.5 267 L 97.5 277" opacity="1"></path><path fill="none" class="highcharts-tick" stroke="#ccd6eb" stroke-width="1" d="M 140.5 267 L 140.5 277" opacity="1"></path><path fill="none" class="highcharts-tick" stroke="#ccd6eb" stroke-width="1" d="M 184.5 267 L 184.5 277" opacity="1"></path><path fill="none" class="highcharts-tick" stroke="#ccd6eb" stroke-width="1" d="M 228.5 267 L 228.5 277" opacity="1"></path><path fill="none" class="highcharts-tick" stroke="#ccd6eb" stroke-width="1" d="M 272.5 267 L 272.5 277" opacity="1"></path><path fill="none" class="highcharts-tick" stroke="#ccd6eb" stroke-width="1" d="M 316.5 267 L 316.5 277" opacity="1"></path><path fill="none" class="highcharts-tick" stroke="#ccd6eb" stroke-width="1" d="M 360.5 267 L 360.5 277" opacity="1"></path><path fill="none" class="highcharts-tick" stroke="#ccd6eb" stroke-width="1" d="M 403.5 267 L 403.5 277" opacity="1"></path><path fill="none" class="highcharts-tick" stroke="#ccd6eb" stroke-width="1" d="M 447.5 267 L 447.5 277" opacity="1"></path><path fill="none" class="highcharts-tick" stroke="#ccd6eb" stroke-width="1" d="M 491.5 267 L 491.5 277" opacity="1"></path><path fill="none" class="highcharts-tick" stroke="#ccd6eb" stroke-width="1" d="M 9.5 267 L 9.5 277" opacity="1"></path><text x="251" text-anchor="middle" transform="translate(0,0)" class="highcharts-axis-title" style="color:#666666;fill:#666666;" y="382.8867912488578"><tspan>Section Name</tspan></text><path fill="none" class="highcharts-axis-line" stroke="#ccd6eb" stroke-width="1" d="M 10 267.5 L 492 267.5"></path></g><g class="highcharts-axis highcharts-yaxis "><path fill="none" class="highcharts-axis-line" d="M 492 60 L 492 267"></path></g><g class="highcharts-series-group"><g class="highcharts-series highcharts-series-0 highcharts-heatmap-series highcharts-color-0 " transform="translate(10,60) scale(1 1)" width="207" height="482" clip-path="url(#highcharts-xe3rgl5-64)"><rect x="0" y="0" width="44" height="69" fill="rgb(92,184,92)" class="highcharts-point highcharts-color-0"></rect><rect x="44" y="0" width="44" height="69" fill="rgb(92,184,92)" class="highcharts-point highcharts-color-0"></rect><rect x="88" y="0" width="43" height="69" fill="rgb(92,184,92)" class="highcharts-point highcharts-color-0"></rect><rect x="131" y="0" width="44" height="69" fill="rgb(92,184,92)" class="highcharts-point highcharts-color-0"></rect><rect x="175" y="0" width="44" height="69" fill="rgb(217,83,79)" class="highcharts-point highcharts-color-0"></rect><rect x="219" y="0" width="44" height="69" fill="rgb(254,227,145)" class="highcharts-point highcharts-color-0"></rect><rect x="263" y="0" width="44" height="69" fill="rgb(92,184,92)" class="highcharts-point highcharts-color-0"></rect><rect x="307" y="0" width="44" height="69" fill="rgb(92,184,92)" class="highcharts-point highcharts-color-0"></rect><rect x="351" y="0" width="43" height="69" fill="rgb(92,184,92)" class="highcharts-point highcharts-color-0"></rect><rect x="394" y="0" width="44" height="69" fill="rgb(92,184,92)" class="highcharts-point highcharts-color-0"></rect><rect x="438" y="0" width="44" height="69" fill="rgb(92,184,92)" class="highcharts-point highcharts-color-0"></rect><rect x="0" y="69" width="44" height="69" fill="rgb(92,184,92)" class="highcharts-point highcharts-color-0"></rect><rect x="44" y="69" width="44" height="69" fill="rgb(217,83,79)" class="highcharts-point highcharts-color-0"></rect><rect x="88" y="69" width="43" height="69" fill="rgb(217,83,79)" class="highcharts-point highcharts-color-0"></rect><rect x="131" y="69" width="44" height="69" fill="rgb(92,184,92)" class="highcharts-point highcharts-color-0"></rect><rect x="175" y="69" width="44" height="69" fill="rgb(254,227,145)" class="highcharts-point highcharts-color-0"></rect><rect x="219" y="69" width="44" height="69" fill="rgb(254,227,145)" class="highcharts-point highcharts-color-0"></rect><rect x="263" y="69" width="44" height="69" fill="rgb(217,83,79)" class="highcharts-point highcharts-color-0"></rect><rect x="307" y="69" width="44" height="69" fill="rgb(92,184,92)" class="highcharts-point highcharts-color-0"></rect><rect x="351" y="69" width="43" height="69" fill="rgb(92,184,92)" class="highcharts-point highcharts-color-0"></rect><rect x="394" y="69" width="44" height="69" fill="rgb(92,184,92)" class="highcharts-point highcharts-color-0"></rect><rect x="438" y="69" width="44" height="69" fill="rgb(92,184,92)" class="highcharts-point highcharts-color-0"></rect><rect x="0" y="138" width="44" height="69" fill="rgb(92,184,92)" class="highcharts-point highcharts-color-0"></rect><rect x="44" y="138" width="44" height="69" fill="rgb(92,184,92)" class="highcharts-point highcharts-color-0"></rect><rect x="88" y="138" width="43" height="69" fill="rgb(92,184,92)" class="highcharts-point highcharts-color-0"></rect><rect x="131" y="138" width="44" height="69" fill="rgb(92,184,92)" class="highcharts-point highcharts-color-0"></rect><rect x="175" y="138" width="44" height="69" fill="rgb(217,83,79)" class="highcharts-point highcharts-color-0"></rect><rect x="219" y="138" width="44" height="69" fill="rgb(92,184,92)" class="highcharts-point highcharts-color-0"></rect><rect x="263" y="138" width="44" height="69" fill="rgb(92,184,92)" class="highcharts-point highcharts-color-0"></rect><rect x="307" y="138" width="44" height="69" fill="rgb(92,184,92)" class="highcharts-point highcharts-color-0"></rect><rect x="351" y="138" width="43" height="69" fill="rgb(92,184,92)" class="highcharts-point highcharts-color-0"></rect><rect x="394" y="138" width="44" height="69" fill="rgb(92,184,92)" class="highcharts-point highcharts-color-0"></rect><rect x="438" y="138" width="44" height="69" fill="rgb(92,184,92)" class="highcharts-point highcharts-color-0"></rect></g><g class="highcharts-markers highcharts-series-0 highcharts-heatmap-series highcharts-color-0 " transform="translate(10,60) scale(1 1)" width="207" height="482" clip-path="none"></g></g><text x="300" text-anchor="middle" class="highcharts-title" style="color:#333333;font-size:18px;fill:#333333;width:536px;" y="24"><tspan>FastQC: Status Checks</tspan></text><g class="highcharts-axis-labels highcharts-xaxis-labels "><text x="34.50181577344158" style="color:#666666;cursor:default;font-size:11px;fill:#666666;width:39;text-overflow:ellipsis;" text-anchor="end" transform="translate(0,0) rotate(-45 34.50181577344158 283)" y="283" opacity="1"><tspan>Basic…</tspan><title>Basic Statistics</title></text><text x="78.3199975916234" style="color:#666666;cursor:default;font-size:11px;fill:#666666;width:101;text-overflow:ellipsis;" text-anchor="end" transform="translate(0,0) rotate(-45 78.3199975916234 283)" y="283" opacity="1"><tspan>Per Base Sequen…</tspan><title>Per Base Sequence Qu</title></text><text x="122.13817940980525" style="color:#666666;cursor:default;font-size:11px;fill:#666666;width:400px;text-overflow:ellipsis;" text-anchor="end" transform="translate(0,0) rotate(-45 122.13817940980525 283)" y="283" opacity="1"><tspan>Per Tile Sequence Qu</tspan></text><text x="165.95636122798706" style="color:#666666;cursor:default;font-size:11px;fill:#666666;width:400px;text-overflow:ellipsis;" text-anchor="end" transform="translate(0,0) rotate(-45 165.95636122798706 283)" y="283" opacity="1"><tspan>Per Sequence Quality</tspan></text><text x="209.77454304616887" style="color:#666666;cursor:default;font-size:11px;fill:#666666;width:400px;text-overflow:ellipsis;" text-anchor="end" transform="translate(0,0) rotate(-45 209.77454304616887 283)" y="283" opacity="1"><tspan>Per Base Sequence Co</tspan></text><text x="253.59272486435069" style="color:#666666;cursor:default;font-size:11px;fill:#666666;width:400px;text-overflow:ellipsis;" text-anchor="end" transform="translate(0,0) rotate(-45 253.59272486435069 283)" y="283" opacity="1"><tspan>Per Sequence GC Cont</tspan></text><text x="297.41090668253247" style="color:#666666;cursor:default;font-size:11px;fill:#666666;width:400px;text-overflow:ellipsis;" text-anchor="end" transform="translate(0,0) rotate(-45 297.41090668253247 283)" y="283" opacity="1"><tspan>Per Base N Content</tspan></text><text x="341.2290885007143" style="color:#666666;cursor:default;font-size:11px;fill:#666666;width:400px;text-overflow:ellipsis;" text-anchor="end" transform="translate(0,0) rotate(-45 341.2290885007143 283)" y="283" opacity="1"><tspan>Sequence Length Dist</tspan></text><text x="385.04727031889615" style="color:#666666;cursor:default;font-size:11px;fill:#666666;width:400px;text-overflow:ellipsis;" text-anchor="end" transform="translate(0,0) rotate(-45 385.04727031889615 283)" y="283" opacity="1"><tspan>Sequence Duplication</tspan></text><text x="428.86545213707797" style="color:#666666;cursor:default;font-size:11px;fill:#666666;width:400px;text-overflow:ellipsis;" text-anchor="end" transform="translate(0,0) rotate(-45 428.86545213707797 283)" y="283" opacity="1"><tspan>Overrepresented Sequ</tspan></text><text x="472.6836339552598" style="color:#666666;cursor:default;font-size:11px;fill:#666666;width:400px;text-overflow:ellipsis;" text-anchor="end" transform="translate(0,0) rotate(-45 472.6836339552598 283)" y="283" opacity="1"><tspan>Adapter Content</tspan></text></g><g class="highcharts-axis-labels highcharts-yaxis-labels "><text x="507" style="color:#666666;cursor:default;font-size:11px;fill:#666666;width:188px;text-overflow:clip;" text-anchor="start" transform="translate(0,0)" y="99" opacity="1"><tspan>ENCFF442IIJ</tspan></text><text x="507" style="color:#666666;cursor:default;font-size:11px;fill:#666666;width:188px;text-overflow:clip;" text-anchor="start" transform="translate(0,0)" y="168" opacity="1"><tspan>ENCFF630PTQ</tspan></text><text x="507" style="color:#666666;cursor:default;font-size:11px;fill:#666666;width:188px;text-overflow:clip;" text-anchor="start" transform="translate(0,0)" y="237" opacity="1"><tspan>ENCFF914WYW</tspan></text></g><text x="590" class="highcharts-credits" text-anchor="end" style="cursor:pointer;color:#999999;font-size:9px;fill:#999999;" y="395"><tspan>Created with MultiQC</tspan></text></svg>