<svg xmlns:xlink="http://www.w3.org/1999/xlink" version="1.1" class="highcharts-root" style="font-family:&quot;lucida grande&quot;, &quot;lucida sans unicode&quot;, arial, helvetica, sans-serif;font-size:12px;" xmlns="http://www.w3.org/2000/svg" width="600" height="400"><desc>Created with Highcharts 5.0.6</desc><defs><clipPath id="highcharts-xe3rgl5-56"><rect x="0" y="0" width="529" height="299" fill="none"></rect></clipPath></defs><rect fill="#ffffff" class="highcharts-background" x="0" y="0" width="600" height="400" rx="0" ry="0"></rect><rect fill="none" class="highcharts-plot-background" x="61" y="46" width="529" height="299"></rect><g class="highcharts-plot-bands-0"><path fill="#e6c3c3" class="highcharts-plot-band " d="M 61 225.5 L 590 225.5 590 46.5 61 46.5 z"></path><path fill="#e6dcc3" class="highcharts-plot-band " d="M 61 315.5 L 590 315.5 590 225.5 61 225.5 z"></path><path fill="#c3e6c3" class="highcharts-plot-band " d="M 61 345.5 L 590 345.5 590 315.5 61 315.5 z"></path></g><g class="highcharts-grid highcharts-xaxis-grid "><path fill="none" class="highcharts-grid-line" d="M 60.5 46 L 60.5 345" opacity="1"></path><path fill="none" class="highcharts-grid-line" d="M 129.5 46 L 129.5 345" opacity="1"></path><path fill="none" class="highcharts-grid-line" d="M 198.5 46 L 198.5 345" opacity="1"></path><path fill="none" class="highcharts-grid-line" d="M 267.5 46 L 267.5 345" opacity="1"></path><path fill="none" class="highcharts-grid-line" d="M 336.5 46 L 336.5 345" opacity="1"></path><path fill="none" class="highcharts-grid-line" d="M 405.5 46 L 405.5 345" opacity="1"></path><path fill="none" class="highcharts-grid-line" d="M 473.5 46 L 473.5 345" opacity="1"></path><path fill="none" class="highcharts-grid-line" d="M 542.5 46 L 542.5 345" opacity="1"></path></g><g class="highcharts-grid highcharts-yaxis-grid "><path fill="none" stroke="#e6e6e6" stroke-width="1" class="highcharts-grid-line" d="M 61 345.5 L 590 345.5" opacity="1"></path><path fill="none" stroke="#e6e6e6" stroke-width="1" class="highcharts-grid-line" d="M 61 285.5 L 590 285.5" opacity="1"></path><path fill="none" stroke="#e6e6e6" stroke-width="1" class="highcharts-grid-line" d="M 61 225.5 L 590 225.5" opacity="1"></path><path fill="none" stroke="#e6e6e6" stroke-width="1" class="highcharts-grid-line" d="M 61 166.5 L 590 166.5" opacity="1"></path><path fill="none" stroke="#e6e6e6" stroke-width="1" class="highcharts-grid-line" d="M 61 106.5 L 590 106.5" opacity="1"></path><path fill="none" stroke="#e6e6e6" stroke-width="1" class="highcharts-grid-line" d="M 61 45.5 L 590 45.5" opacity="1"></path></g><rect fill="none" class="highcharts-plot-border" x="61" y="46" width="529" height="299"></rect><g class="highcharts-axis highcharts-xaxis "><path fill="none" class="highcharts-tick" stroke="#ccd6eb" stroke-width="1" d="M 60.5 345 L 60.5 355" opacity="1"></path><path fill="none" class="highcharts-tick" stroke="#ccd6eb" stroke-width="1" d="M 129.5 345 L 129.5 355" opacity="1"></path><path fill="none" class="highcharts-tick" stroke="#ccd6eb" stroke-width="1" d="M 198.5 345 L 198.5 355" opacity="1"></path><path fill="none" class="highcharts-tick" stroke="#ccd6eb" stroke-width="1" d="M 267.5 345 L 267.5 355" opacity="1"></path><path fill="none" class="highcharts-tick" stroke="#ccd6eb" stroke-width="1" d="M 336.5 345 L 336.5 355" opacity="1"></path><path fill="none" class="highcharts-tick" stroke="#ccd6eb" stroke-width="1" d="M 405.5 345 L 405.5 355" opacity="1"></path><path fill="none" class="highcharts-tick" stroke="#ccd6eb" stroke-width="1" d="M 473.5 345 L 473.5 355" opacity="1"></path><path fill="none" class="highcharts-tick" stroke="#ccd6eb" stroke-width="1" d="M 542.5 345 L 542.5 355" opacity="1"></path><text x="325.5" text-anchor="middle" transform="translate(0,0)" class="highcharts-axis-title" style="color:#666666;fill:#666666;" y="383"><tspan>Position in Read (bp)</tspan></text><path fill="none" class="highcharts-axis-line" stroke="#ccd6eb" stroke-width="1" d="M 61 345.5 L 590 345.5"></path></g><g class="highcharts-axis highcharts-yaxis "><text x="23.766666412353516" text-anchor="middle" transform="translate(0,0) rotate(270 23.766666412353516 195.5)" class="highcharts-axis-title" style="color:#666666;fill:#666666;" y="195.5"><tspan>Percentage N-Count</tspan></text><path fill="none" class="highcharts-axis-line" d="M 61 46 L 61 345"></path></g><g class="highcharts-series-group"><g class="highcharts-series highcharts-series-0 highcharts-line-series highcharts-color-undefined " transform="translate(61,46) scale(1 1)" width="299" height="529" clip-path="url(#highcharts-xe3rgl5-56)"><path fill="none" d="M 6.8916102136529 298.14284949387866 L 13.783220427306 298.9999557753812 L 20.674830640959 298.9819784678244 L 27.566440854612 298.99338841948406 L 34.458051068265 299 L 41.349661281918 298.87529763103765 L 48.241271495571 298.91623857192496 L 55.132881709224 298.9452499218812 L 62.024491922876 298.9368030196836 L 68.916102136529 298.9299039791452 L 75.807712350182 298.93116438078204 L 82.699322563835 298.9270293789209 L 89.590932777488 298.8815333022935 L 96.482542991141 298.87020074371685 L 103.37415320479 298.8825062439079 L 110.26576341845 298.8419080438166 L 117.1573736321 298.79505206016006 L 124.04898384575 298.6525713944257 L 130.94059405941 298.7330159760881 L 137.83220427306 298.77704158413917 L 144.72381448671 298.81935348821037 L 151.61542470036 298.83507534020646 L 158.50703491402 298.9086208813305 L 165.39864512767 298.9351003718584 L 172.29025534132 298.9391469244819 L 179.18186555498 298.9545702603009 L 186.07347576863 298.95503461879866 L 192.96508598228 298.8961605949735 L 199.85669619594 298.8963153811394 L 206.74830640959 298.9687884752566 L 213.63991662324 298.979258653766 L 220.53152683689 298.9833162625442 L 227.42313705055 298.98727436593 L 234.3147472642 298.9820116362885 L 241.20635747785 298.9622100632048 L 248.09796769151 298.9731003755931" class="highcharts-graph" stroke="#5cb85c" stroke-width="2" stroke-linejoin="round" stroke-linecap="round"></path></g><g class="highcharts-markers highcharts-series-0 highcharts-line-series highcharts-color-undefined " transform="translate(61,46) scale(1 1)" width="299" height="529" clip-path="none"></g><g class="highcharts-series highcharts-series-1 highcharts-line-series highcharts-color-undefined " transform="translate(61,46) scale(1 1)" width="299" height="529" clip-path="url(#highcharts-xe3rgl5-56)"><path fill="none" d="M 6.8916102136529 298.47822229862305 L 13.783220427306 299 L 20.674830640959 298.9222825699896 L 27.566440854612 298.99391585121066 L 34.458051068265 298.99765994277334 L 41.349661281918 298.92908250098947 L 48.241271495571 298.9546304198877 L 55.132881709224 298.9830689977129 L 62.024491922876 298.99688910039276 L 68.916102136529 298.99240169653456 L 75.807712350182 299 L 82.699322563835 298.99105272236864 L 89.590932777488 298.9952372952916 L 96.482542991141 298.99570530673697 L 103.37415320479 298.97717755951874 L 110.26576341845 298.9991740974494 L 117.1573736321 298.9996145788097 L 124.04898384575 298.9727727459156 L 130.94059405941 298.9982931347288 L 137.83220427306 298.9989263266842 L 144.72381448671 298.9969441605628 L 151.61542470036 298.99939433812955 L 158.50703491402 298.98942844735245 L 165.39864512767 298.9996145788097 L 172.29025534132 298.98576694604486 L 179.18186555498 298.99303488849006 L 186.07347576863 298.9906122410083 L 192.96508598228 298.99966963897975 L 199.85669619594 298.99446645291107 L 206.74830640959 298.98984139862773 L 213.63991662324 298.9968340402227 L 220.53152683689 298.99543000588676 L 227.42313705055 298.998568435579 L 234.3147472642 298.9851337540894 L 241.20635747785 298.99149320372896 L 248.09796769151 33.63426194581257" class="highcharts-graph" stroke="#d9534f" stroke-width="2" stroke-linejoin="round" stroke-linecap="round"></path></g><g class="highcharts-markers highcharts-series-1 highcharts-line-series highcharts-color-undefined " transform="translate(61,46) scale(1 1)" width="299" height="529" clip-path="none"></g><g class="highcharts-series highcharts-series-2 highcharts-line-series highcharts-color-undefined " transform="translate(61,46) scale(1 1)" width="299" height="529" clip-path="url(#highcharts-xe3rgl5-56)"><path fill="none" d="M 6.8916102136529 298.8654247994465 L 13.783220427306 298.8763502682791 L 20.674830640959 299 L 27.566440854612 299 L 34.458051068265 299 L 41.349661281918 298.8987917718273 L 48.241271495571 299 L 55.132881709224 298.9918428087432 L 62.024491922876 298.9961982321292 L 68.916102136529 298.99822830235144 L 82.699322563835 298.99117842212496 L 96.482542991141 298.9956076662463 L 110.26576341845 298.99839439900603 L 124.04898384575 298.9945926311352 L 137.83220427306 299 L 151.61542470036 299 L 165.39864512767 298.99896650970504 L 179.18186555498 298.9975823709171 L 192.96508598228 298.99466645187056 L 206.74830640959 299 L 220.53152683689 299 L 234.3147472642 298.9873028335188 L 248.09796769151 298.3172689290623 L 261.88118811881 298.413217429841 L 275.66440854612 299 L 289.44762897342 298.989000710432 L 303.23084940073 298.93555449803443 L 317.01406982804 299 L 330.79729025534 297.27058317763704 L 344.58051068265 296.8079855395302 L 358.36373110995 296.50031916975126 L 372.14695153726 297.9684844096903 L 385.93017196456 299 L 399.71339239187 299 L 413.49661281918 299 L 427.27983324648 298.9590479470614 L 441.06305367379 298.9646398677646 L 454.84627410109 298.9502263691864 L 468.6294945284 298.8865006193905 L 482.41271495571 298.9485654026409 L 496.19593538301 298.90266736043344 L 509.97915581032 298.93564677395364 L 523.76237623762 298.99357759602407" class="highcharts-graph" stroke="#5cb85c" stroke-width="2" stroke-linejoin="round" stroke-linecap="round"></path></g><g class="highcharts-markers highcharts-series-2 highcharts-line-series highcharts-color-undefined " transform="translate(61,46) scale(1 1)" width="299" height="529" clip-path="none"></g></g><text x="330" text-anchor="middle" class="highcharts-title" style="color:#333333;font-size:18px;fill:#333333;width:536px;" y="24"><tspan>FastQC: Per Base N Content</tspan></text><g class="highcharts-axis-labels highcharts-xaxis-labels "><text x="61" style="color:#666666;cursor:default;font-size:11px;fill:#666666;" text-anchor="middle" transform="translate(0,0)" y="364" opacity="1">0</text><text x="129.91610213652945" style="color:#666666;cursor:default;font-size:11px;fill:#666666;" text-anchor="middle" transform="translate(0,0)" y="364" opacity="1">10</text><text x="198.83220427305886" style="color:#666666;cursor:default;font-size:11px;fill:#666666;" text-anchor="middle" transform="translate(0,0)" y="364" opacity="1">20</text><text x="267.7483064095883" style="color:#666666;cursor:default;font-size:11px;fill:#666666;" text-anchor="middle" transform="translate(0,0)" y="364" opacity="1">30</text><text x="336.6644085461177" style="color:#666666;cursor:default;font-size:11px;fill:#666666;" text-anchor="middle" transform="translate(0,0)" y="364" opacity="1">40</text><text x="405.5805106826472" style="color:#666666;cursor:default;font-size:11px;fill:#666666;" text-anchor="middle" transform="translate(0,0)" y="364" opacity="1">50</text><text x="474.4966128191766" style="color:#666666;cursor:default;font-size:11px;fill:#666666;" text-anchor="middle" transform="translate(0,0)" y="364" opacity="1">60</text><text x="543.412714955706" style="color:#666666;cursor:default;font-size:11px;fill:#666666;" text-anchor="middle" transform="translate(0,0)" y="364" opacity="1">70</text></g><g class="highcharts-axis-labels highcharts-yaxis-labels "><text x="46" style="color:#666666;cursor:default;font-size:11px;fill:#666666;width:188px;text-overflow:clip;" text-anchor="end" transform="translate(0,0)" y="350" opacity="1"><tspan>0</tspan></text><text x="46" style="color:#666666;cursor:default;font-size:11px;fill:#666666;width:188px;text-overflow:clip;" text-anchor="end" transform="translate(0,0)" y="290" opacity="1"><tspan>10</tspan></text><text x="46" style="color:#666666;cursor:default;font-size:11px;fill:#666666;width:188px;text-overflow:clip;" text-anchor="end" transform="translate(0,0)" y="230" opacity="1"><tspan>20</tspan></text><text x="46" style="color:#666666;cursor:default;font-size:11px;fill:#666666;width:188px;text-overflow:clip;" text-anchor="end" transform="translate(0,0)" y="170" opacity="1"><tspan>30</tspan></text><text x="46" style="color:#666666;cursor:default;font-size:11px;fill:#666666;width:188px;text-overflow:clip;" text-anchor="end" transform="translate(0,0)" y="110" opacity="1"><tspan>40</tspan></text><text x="46" style="color:#666666;cursor:default;font-size:11px;fill:#666666;width:188px;text-overflow:clip;" text-anchor="end" transform="translate(0,0)" y="51" opacity="1"><tspan>50</tspan></text></g><text x="590" class="highcharts-credits" text-anchor="end" style="cursor:pointer;color:#999999;font-size:9px;fill:#999999;" y="395"><tspan>Created with MultiQC</tspan></text></svg>